<?xml version="1.0" standalone="no"?>
<!DOCTYPE svg PUBLIC "-//W3C//DTD SVG 20010904//EN"
 "http://www.w3.org/TR/2001/REC-SVG-20010904/DTD/svg10.dtd">
<svg version="1.0" xmlns="http://www.w3.org/2000/svg"
 width="1984.000000pt" height="1984.000000pt" viewBox="0 0 1984.000000 1984.000000"
 preserveAspectRatio="xMidYMid meet">
<metadata>
Created by potrace 1.11, written by Peter Selinger 2001-2013
</metadata>
<g transform="translate(0.000000,1984.000000) scale(0.100000,-0.100000)"
fill="#000000" stroke="none">
<path d="M9868 19753 c-25 -49 -69 -133 -98 -188 -29 -55 -67 -127 -85 -160
-18 -33 -63 -118 -100 -190 -37 -71 -87 -166 -110 -210 -23 -44 -65 -123 -92
-175 -28 -52 -66 -124 -85 -160 -19 -36 -66 -123 -103 -195 -37 -71 -85 -161
-105 -200 -37 -70 -102 -192 -188 -355 -86 -163 -145 -276 -185 -350 -87 -165
-143 -270 -277 -525 -127 -241 -151 -287 -211 -400 -34 -66 -91 -174 -126
-240 -35 -66 -73 -138 -84 -160 l-21 -40 -146 -38 c-81 -21 -154 -40 -162 -42
-38 -8 -482 -150 -530 -170 -19 -7 -80 -30 -135 -50 -55 -21 -113 -43 -130
-50 -16 -8 -55 -23 -85 -35 -30 -12 -68 -28 -85 -35 -16 -8 -46 -20 -65 -28
-120 -48 -538 -253 -665 -325 -38 -22 -86 -48 -105 -58 -216 -118 -796 -495
-808 -526 -2 -4 -10 -8 -17 -8 -7 0 -15 -3 -17 -8 -1 -4 -46 -40 -98 -79 -286
-215 -584 -478 -874 -771 -88 -90 -165 -169 -171 -175 -21 -24 -170 -192 -175
-197 -36 -36 -285 -342 -346 -425 -16 -22 -31 -42 -34 -45 -16 -14 -170 -233
-254 -360 -52 -80 -99 -149 -103 -155 -5 -5 -52 -84 -106 -175 -54 -91 -103
-172 -108 -180 -5 -8 -15 -26 -22 -40 -6 -14 -35 -65 -62 -115 -78 -139 -229
-449 -312 -644 -250 -582 -421 -1146 -539 -1781 -5 -25 -9 -49 -10 -55 -1 -16
-16 -108 -20 -130 -10 -50 -38 -255 -49 -360 -38 -348 -48 -545 -49 -900 0
-254 8 -512 19 -640 2 -22 6 -71 10 -110 3 -38 10 -110 16 -160 5 -49 11 -108
14 -130 4 -41 22 -170 30 -216 3 -14 7 -42 9 -62 10 -79 42 -247 87 -462 69
-327 197 -768 315 -1083 l35 -92 -24 -48 c-13 -26 -42 -81 -64 -122 -22 -41
-68 -129 -103 -195 -35 -66 -83 -158 -108 -205 -24 -47 -67 -128 -95 -180 -27
-52 -64 -122 -82 -155 -18 -33 -67 -127 -110 -210 -43 -82 -85 -163 -95 -180
-10 -16 -57 -106 -105 -200 -48 -93 -91 -174 -95 -180 -4 -5 -42 -77 -85 -160
-43 -82 -90 -172 -105 -200 -15 -27 -58 -108 -95 -180 -81 -156 -160 -305
-191 -361 l-22 -42 94 -148 c265 -414 608 -878 879 -1189 24 -27 52 -61 63
-75 14 -16 24 -22 30 -15 5 6 40 69 77 140 96 183 161 309 205 390 38 71 99
187 185 350 26 50 67 126 90 170 23 44 93 177 155 295 62 118 132 251 155 295
23 44 68 130 100 190 32 61 75 142 95 180 67 124 117 219 139 264 l23 43 15
-23 c35 -52 158 -224 163 -229 4 -3 26 -32 51 -65 24 -33 46 -62 49 -65 3 -3
19 -23 35 -45 77 -103 316 -380 460 -534 161 -171 441 -442 549 -532 16 -13
36 -31 45 -40 28 -30 231 -196 360 -297 268 -209 565 -411 859 -585 90 -54
165 -97 168 -97 2 0 21 -11 42 -24 45 -28 397 -207 507 -258 93 -42 334 -147
409 -177 207 -84 533 -196 741 -255 50 -14 104 -30 120 -35 106 -33 461 -115
625 -146 14 -3 36 -7 50 -10 38 -8 64 -13 106 -19 22 -4 80 -13 129 -21 50 -7
111 -16 136 -20 25 -3 57 -8 70 -10 29 -5 79 -11 174 -20 39 -4 81 -8 94 -10
13 -3 67 -7 120 -10 53 -4 107 -8 120 -10 50 -8 364 -18 561 -18 329 0 628 16
920 48 113 13 139 16 200 25 36 5 83 12 105 15 22 3 65 10 95 15 30 5 73 12
95 16 238 36 673 139 960 226 219 67 604 201 680 238 11 5 45 19 75 30 30 12
78 32 108 46 29 13 55 24 57 24 19 0 537 255 659 324 54 31 100 56 102 56 5 0
282 167 344 208 297 193 634 435 785 564 11 9 30 25 41 35 12 10 43 36 70 58
122 101 272 237 460 419 l113 108 -611 608 -610 607 -82 -81 c-103 -102 -205
-197 -280 -261 -32 -27 -68 -59 -80 -69 -47 -42 -307 -246 -391 -307 -203
-147 -455 -307 -680 -431 -133 -74 -454 -232 -555 -273 -36 -15 -84 -36 -107
-46 -23 -10 -48 -19 -55 -19 -8 0 -18 -4 -24 -9 -17 -16 -344 -130 -514 -181
-41 -12 -95 -28 -120 -35 -84 -25 -420 -105 -505 -120 -16 -3 -66 -12 -110
-20 -96 -17 -270 -43 -340 -51 -27 -3 -61 -7 -75 -10 -14 -2 -61 -6 -105 -10
-44 -3 -90 -7 -103 -9 -131 -22 -905 -22 -1018 -1 -10 2 -59 7 -109 11 -49 3
-103 8 -120 10 -16 2 -50 7 -75 10 -25 3 -54 7 -65 9 -11 2 -47 7 -80 12 -33
4 -62 8 -65 9 -3 0 -26 4 -51 8 -130 21 -178 31 -369 74 -85 19 -162 36 -170
38 -8 2 -41 11 -74 20 -32 9 -66 19 -75 20 -9 2 -16 4 -16 5 0 1 -10 3 -21 6
-53 9 -455 147 -604 207 -524 209 -973 458 -1445 802 -125 91 -121 88 -155
116 -14 12 -41 33 -60 48 -19 14 -37 28 -40 31 -3 3 -34 29 -70 59 -58 48
-152 130 -244 214 -292 266 -632 652 -870 987 -37 52 -73 102 -80 111 -7 9
-15 20 -17 25 -5 10 -132 206 -160 246 -10 15 -19 30 -19 32 0 3 -18 35 -40
71 -46 75 -77 131 -166 300 l-63 120 51 95 c28 52 73 138 100 190 28 52 69
131 93 175 23 44 73 139 111 210 37 72 82 157 100 190 18 33 48 92 68 130 20
39 62 120 94 180 32 61 87 164 121 230 35 66 76 143 91 170 15 28 58 109 95
180 71 136 144 276 229 435 28 53 71 134 96 182 25 48 46 86 46 85 2 -2 10
-63 20 -145 8 -69 42 -272 60 -355 9 -40 17 -81 20 -92 16 -81 73 -285 114
-409 320 -962 949 -1786 1795 -2351 94 -62 188 -123 210 -135 22 -12 58 -32
80 -46 82 -50 405 -205 530 -255 286 -114 661 -222 882 -255 21 -3 45 -7 53
-9 17 -5 140 -23 210 -31 25 -3 56 -7 69 -9 68 -12 271 -20 486 -20 289 0 443
11 675 46 195 30 324 56 500 104 52 14 104 28 114 30 65 15 364 122 461 165
22 9 83 36 135 59 148 65 422 214 544 296 37 25 69 45 71 45 18 0 350 252 477
361 89 77 375 360 426 422 23 29 54 66 70 82 82 90 256 325 360 488 135 211
291 513 387 749 96 238 211 635 249 863 3 17 12 71 20 120 8 50 20 134 27 187
6 54 13 98 14 98 2 0 63 -114 136 -252 73 -139 147 -280 164 -313 89 -167 142
-268 180 -340 23 -44 71 -134 105 -200 34 -66 79 -151 100 -190 39 -72 100
-187 190 -360 52 -100 108 -206 203 -385 27 -52 64 -122 82 -155 18 -33 63
-118 100 -190 37 -71 85 -161 105 -200 20 -38 62 -117 92 -175 141 -267 244
-461 278 -525 20 -38 70 -133 110 -210 40 -77 85 -162 100 -190 15 -27 60
-113 100 -190 40 -77 85 -162 100 -190 15 -27 53 -99 85 -160 32 -60 79 -150
105 -200 26 -49 73 -139 105 -200 58 -111 116 -220 185 -350 21 -38 66 -124
100 -190 35 -66 75 -142 90 -170 15 -27 58 -108 95 -180 37 -71 85 -161 105
-200 21 -38 63 -119 95 -180 32 -60 77 -146 100 -190 23 -44 66 -125 95 -180
166 -316 161 -309 179 -288 176 191 701 868 701 902 0 6 4 11 8 11 4 0 16 15
27 33 10 17 24 37 29 43 10 10 87 128 228 349 l51 79 -46 91 c-25 49 -73 140
-105 200 -32 61 -87 164 -122 230 -126 240 -174 333 -250 475 -42 80 -108 204
-145 275 -37 72 -128 243 -200 380 -166 315 -235 445 -298 565 -57 110 -134
255 -187 355 -21 39 -66 124 -100 190 -34 66 -77 147 -95 180 -18 33 -58 110
-90 170 -32 61 -75 142 -95 180 -21 39 -70 133 -111 210 -40 77 -87 167 -105
200 -18 33 -52 98 -76 145 -24 47 -68 130 -97 185 -73 137 -201 380 -306 580
-32 61 -75 142 -95 180 -21 39 -61 115 -90 170 -60 115 -111 211 -237 450 -50
94 -118 224 -153 290 -34 66 -77 147 -95 180 -18 33 -65 123 -106 200 -40 77
-87 167 -105 200 -18 33 -46 87 -63 120 -28 55 -68 132 -210 400 -102 192
-134 250 -144 262 -5 7 -6 13 -2 13 4 0 3 6 -3 13 -6 6 -31 53 -57 102 -26 50
-66 126 -90 170 -47 88 -114 216 -195 370 -29 55 -72 136 -95 180 -23 44 -68
130 -100 190 -118 224 -158 301 -185 350 -15 28 -65 122 -110 210 -46 88 -86
165 -90 170 -4 6 -40 73 -80 150 -40 77 -89 172 -110 210 -42 79 -111 209
-195 370 -92 175 -155 295 -195 370 -20 39 -68 129 -105 200 -37 72 -84 162
-105 200 -103 193 -132 248 -180 340 -77 146 -166 316 -205 387 -34 63 -72
138 -86 170 -8 17 14 6 201 -105 207 -123 569 -377 731 -512 20 -16 55 -46 79
-64 23 -19 48 -40 54 -45 6 -6 29 -26 51 -45 65 -55 153 -137 271 -252 l112
-109 606 604 c333 332 606 608 606 612 0 23 -460 445 -666 611 -49 40 -94 77
-101 83 -37 31 -332 249 -350 258 -12 7 -27 18 -35 25 -37 37 -415 278 -618
394 -341 195 -728 381 -1065 513 -11 4 -31 12 -45 18 -14 6 -77 29 -140 52
-63 23 -124 45 -135 50 -58 24 -404 130 -575 175 -74 20 -151 40 -170 45 -30
8 -40 19 -68 72 -18 35 -54 104 -80 153 -27 50 -79 149 -117 220 -37 72 -84
162 -105 200 -47 87 -126 238 -198 375 -30 58 -69 132 -87 165 -18 33 -70 132
-115 220 -46 88 -91 171 -100 185 -9 14 -34 59 -55 100 -20 41 -50 98 -65 125
-15 28 -58 109 -95 180 -37 72 -85 162 -105 200 -21 39 -63 120 -95 180 -114
217 -127 240 -141 256 -8 9 -32 51 -55 95 -44 85 -129 246 -189 359 -20 39
-65 124 -100 190 -34 66 -77 147 -95 180 -18 33 -47 88 -65 123 -17 34 -33 62
-34 62 -1 0 -22 -39 -48 -87z m292 -5047 c113 -4 221 -8 240 -10 19 -3 72 -7
117 -11 46 -3 91 -8 100 -9 10 -2 50 -7 88 -11 98 -10 127 -14 130 -17 1 -2
32 -61 70 -133 101 -195 164 -313 200 -380 18 -33 61 -114 95 -180 112 -214
172 -329 210 -400 52 -98 146 -274 164 -309 8 -16 19 -32 24 -35 10 -7 88
-148 154 -281 24 -47 45 -87 48 -90 3 -3 22 -39 43 -80 21 -41 60 -115 87
-165 26 -49 71 -135 100 -190 29 -55 66 -124 82 -152 16 -29 28 -53 26 -53 -2
0 -74 35 -159 78 -233 117 -360 171 -564 242 -296 102 -658 186 -930 215 -33
4 -71 8 -85 10 -183 27 -748 27 -960 0 -19 -3 -55 -7 -80 -10 -25 -3 -56 -7
-70 -10 -14 -3 -45 -7 -70 -10 -58 -7 -76 -10 -195 -35 -55 -12 -111 -24 -125
-26 -14 -3 -33 -7 -42 -10 -9 -3 -25 -7 -35 -9 -70 -15 -291 -81 -408 -123
-190 -67 -339 -131 -532 -228 -90 -45 -163 -80 -163 -78 0 3 20 42 44 87 24
45 88 165 141 267 106 200 173 329 272 514 35 66 63 123 63 127 0 4 6 14 13
21 6 8 30 49 52 93 22 44 65 127 96 185 61 115 141 266 214 405 26 50 51 96
57 103 6 6 8 12 4 12 -3 0 7 21 22 48 15 26 36 65 47 87 11 22 22 42 25 45 3
3 25 43 48 90 89 174 177 339 187 349 11 10 47 17 141 26 32 4 70 8 84 11 14
2 61 6 105 10 44 3 96 7 115 10 19 2 134 7 255 10 121 4 222 8 223 10 2 1 9 1
15 -1 7 -2 104 -6 217 -9z m-3446 -937 c-66 -124 -115 -218 -235 -444 -35 -66
-62 -121 -61 -123 3 -2 -34 -76 -83 -167 -18 -33 -63 -118 -100 -190 -37 -71
-86 -164 -108 -205 -22 -41 -60 -113 -85 -160 -24 -47 -64 -121 -87 -165 -23
-44 -73 -138 -110 -210 -37 -71 -105 -200 -150 -285 -45 -85 -107 -202 -138
-260 -121 -231 -236 -449 -274 -520 -22 -41 -70 -133 -108 -205 -37 -71 -87
-166 -110 -210 -23 -44 -65 -123 -92 -175 -28 -52 -139 -262 -247 -467 -108
-205 -196 -375 -196 -378 0 -4 -8 -19 -18 -33 -11 -15 -61 -108 -112 -207 -52
-99 -111 -211 -131 -250 -21 -38 -59 -110 -85 -160 -26 -49 -61 -117 -78 -150
-18 -33 -65 -123 -105 -200 -40 -77 -81 -153 -91 -170 -9 -16 -48 -88 -85
-160 -126 -242 -177 -340 -215 -410 -20 -38 -61 -116 -91 -172 -29 -56 -54
-101 -55 -100 -3 4 -13 131 -21 257 -13 235 -6 797 12 914 2 11 6 50 10 86 13
141 16 166 36 298 11 75 22 148 24 162 17 113 63 330 101 480 19 74 37 142 39
151 18 80 93 316 157 494 277 767 717 1502 1275 2125 146 163 498 506 607 591
16 13 41 34 55 47 88 83 408 320 616 457 120 79 398 246 402 241 2 -1 -27 -58
-63 -127z m3536 -2013 c25 -3 63 -8 85 -11 22 -3 67 -8 100 -11 33 -3 63 -8
67 -10 4 -3 24 -7 45 -10 21 -2 90 -16 153 -30 410 -91 818 -264 1170 -497 94
-62 236 -164 266 -192 7 -5 22 -19 35 -29 276 -222 619 -612 765 -871 6 -11
28 -47 49 -80 46 -75 209 -406 225 -460 7 -22 16 -44 20 -50 31 -43 150 -456
175 -605 3 -19 10 -57 15 -85 8 -44 14 -88 26 -185 14 -114 19 -215 19 -400 0
-301 -10 -402 -70 -735 -11 -57 -74 -290 -103 -380 -54 -165 -154 -402 -219
-518 -18 -33 -33 -61 -33 -64 0 -2 -22 -41 -48 -86 -321 -542 -743 -965 -1280
-1284 -126 -74 -394 -204 -492 -238 -3 -1 -12 -5 -20 -8 -160 -70 -586 -179
-785 -202 -27 -3 -61 -8 -75 -10 -144 -26 -712 -26 -834 0 -12 2 -39 6 -61 9
-495 59 -1032 262 -1480 559 -606 402 -1080 989 -1342 1662 -58 148 -128 377
-149 480 -2 11 -11 52 -19 90 -16 77 -20 99 -35 195 -15 95 -18 124 -27 230
-15 178 -7 629 13 715 2 11 6 41 9 68 5 54 26 173 42 242 8 35 7 29 17 80 16
86 106 378 141 460 7 17 29 71 50 120 128 311 335 644 575 924 69 81 281 293
377 377 79 69 240 190 343 257 47 31 90 60 95 64 12 10 104 63 195 111 36 19
69 39 75 43 5 5 16 9 25 9 9 0 21 5 27 11 21 21 274 126 434 179 182 61 482
130 629 145 36 4 68 9 71 11 3 2 51 6 105 10 54 3 101 7 102 9 6 5 482 -3 532
-9z"/>
<path d="M9638 10598 c-2 -7 -4 -1077 -3 -2378 l0 -2365 273 -3 272 -2 0 2380
0 2380 -269 0 c-206 0 -270 -3 -273 -12z"/>
<path d="M10372 9935 l3 -297 45 -15 c25 -8 88 -35 140 -59 291 -137 554 -397
699 -690 39 -80 107 -270 117 -329 2 -16 7 -37 9 -45 27 -91 27 -437 1 -560
-84 -393 -289 -711 -604 -937 -89 -64 -266 -158 -359 -190 l-53 -18 0 -292 c0
-161 3 -293 8 -293 4 0 41 9 82 20 644 175 1177 669 1400 1295 17 50 33 98 36
109 2 10 10 42 18 70 16 56 34 148 42 211 3 22 9 67 14 100 4 33 7 137 5 230
-3 165 -5 192 -20 286 -3 24 -9 58 -11 74 -24 152 -120 426 -201 574 -47 86
-129 218 -143 231 -3 3 -25 32 -50 65 -191 259 -494 494 -820 638 -52 22 -198
76 -223 82 -37 8 -91 22 -115 29 l-22 7 2 -296z"/>
<path d="M9337 10195 c-637 -196 -1126 -657 -1356 -1284 -30 -79 -74 -242 -84
-306 -7 -41 -16 -94 -23 -130 -3 -16 -7 -118 -9 -225 -3 -215 13 -361 59 -540
108 -416 339 -786 661 -1060 81 -68 246 -187 274 -198 9 -3 18 -8 21 -11 11
-13 192 -102 274 -135 105 -43 285 -97 289 -87 2 3 3 136 3 294 l-1 288 -93
39 c-283 119 -516 313 -683 568 -50 76 -139 253 -139 275 0 7 -4 17 -9 23 -5
5 -21 52 -35 104 -47 179 -55 246 -52 440 2 91 6 176 10 190 3 14 13 61 22
105 53 261 197 519 403 725 156 156 324 267 517 340 l60 23 0 294 c1 261 -1
293 -15 292 -9 0 -51 -11 -94 -24z"/>
</g>
</svg>
